<svg width="279" height="49" viewBox="0 0 279 49" fill="none" xmlns="http://www.w3.org/2000/svg">
<path d="M14.6065 24.4044C14.6065 25.7163 14.8553 26.9603 15.3529 28.1364C15.8505 29.2674 16.5291 30.2626 17.3886 31.122C18.2481 31.9815 19.2433 32.6601 20.3742 33.1577C21.5503 33.6553 22.7943 33.9041 24.1062 33.9041C25.418 33.9041 26.6394 33.6553 27.7703 33.1577C28.9465 32.6601 29.9643 31.9815 30.8238 31.122C31.6833 30.2626 32.3618 29.2674 32.8594 28.1364C33.357 26.9603 33.6058 25.7163 33.6058 24.4044C33.6058 23.0926 33.357 21.8712 32.8594 20.7403C32.3618 19.5642 31.6833 18.5463 30.8238 17.6868C29.9643 16.8274 28.9465 16.1488 27.7703 15.6512C26.6394 15.1536 25.418 14.9048 24.1062 14.9048C22.7943 14.9048 21.5503 15.1536 20.3742 15.6512C19.2433 16.1488 18.2481 16.8274 17.3886 17.6868C16.5291 18.5463 15.8505 19.5642 15.3529 20.7403C14.8553 21.8712 14.6065 23.0926 14.6065 24.4044ZM24.1062 40.011C21.9348 40.011 19.8992 39.6039 17.9993 38.7896C16.1446 37.9753 14.4934 36.8671 13.0459 35.4647C11.6436 34.0172 10.5353 32.366 9.72101 30.5114C8.90676 28.6114 8.49963 26.5758 8.49963 24.4044C8.49963 22.2331 8.90676 20.2201 9.72101 18.3654C10.5353 16.4655 11.6436 14.8143 13.0459 13.412C14.4934 11.9645 16.1446 10.8335 17.9993 10.0193C19.8992 9.20503 21.9348 8.79791 24.1062 8.79791C26.2775 8.79791 28.2905 9.20503 30.1452 10.0193C32.0452 10.8335 33.6963 11.9645 35.0986 13.412C36.5462 14.8143 37.6771 16.4655 38.4913 18.3654C39.3056 20.2201 39.7127 22.2331 39.7127 24.4044C39.7127 26.5758 39.3056 28.6114 38.4913 30.5114C37.6771 32.366 36.5462 34.0172 35.0986 35.4647C33.6963 36.8671 32.0452 37.9753 30.1452 38.7896C28.2905 39.6039 26.2775 40.011 24.1062 40.011ZM0.35709 24.4044C0.35709 21.1474 0.967781 18.0714 2.18916 15.1762C3.45578 12.2811 5.15214 9.77049 7.27825 7.64438C9.4496 5.47303 11.9828 3.77667 14.878 2.55529C17.7731 1.28867 20.8492 0.655364 24.1062 0.655364C27.3632 0.655364 30.4393 1.28867 33.3344 2.55529C36.2295 3.77667 38.7401 5.47303 40.8662 7.64438C43.0376 9.77049 44.7339 12.2811 45.9553 15.1762C47.2219 18.0714 47.8553 21.1474 47.8553 24.4044C47.8553 26.3496 47.6291 28.2269 47.1767 30.0364C46.7243 31.8458 46.091 33.5422 45.2768 35.1255H49.4838L43.3769 47H31.3666C28.9691 47.769 26.5489 48.1535 24.1062 48.1535C20.8492 48.1535 17.7731 47.5428 14.878 46.3215C11.9828 45.0548 9.4496 43.3585 7.27825 41.2324C5.15214 39.061 3.45578 36.5278 2.18916 33.6327C0.967781 30.7375 0.35709 27.6615 0.35709 24.4044ZM31.4345 40.1467C32.9273 39.4681 34.2844 38.586 35.5057 37.5004C36.7271 36.4147 37.7675 35.1933 38.627 33.8362C39.5318 32.4791 40.2329 31.009 40.7305 29.4257C41.2281 27.7972 41.4769 26.1234 41.4769 24.4044C41.4769 22.0069 41.0246 19.7677 40.1198 17.6868C39.2151 15.5607 37.9711 13.706 36.3878 12.1228C34.8046 10.5395 32.9499 9.29551 30.8238 8.39078C28.7429 7.48605 26.5037 7.03369 24.1062 7.03369C21.7086 7.03369 19.4468 7.48605 17.3207 8.39078C15.2398 9.29551 13.4078 10.5395 11.8245 12.1228C10.2412 13.706 8.99723 15.5607 8.09251 17.6868C7.18778 19.7677 6.73542 22.0069 6.73542 24.4044C6.73542 26.802 7.18778 29.0638 8.09251 31.1899C8.99723 33.2708 10.2412 35.1028 11.8245 36.6861C13.4078 38.2694 15.2625 39.5134 17.3886 40.4181C19.5599 41.3228 21.8896 41.7752 24.3776 41.7752H41.6805L42.4947 40.1467H31.4345ZM70.1274 48.1535C67.2775 48.1535 64.6991 47.7916 62.392 47.0679C60.085 46.3441 58.1172 45.2584 56.4887 43.8108C54.8602 42.3633 53.5936 40.5312 52.6888 38.3146C51.8293 36.098 51.3996 33.497 51.3996 30.5114V1.74103H65.8526V29.9007C65.8526 31.4839 66.1693 32.7053 66.8026 33.5648C67.4811 34.3791 68.5894 34.7862 70.1274 34.7862C71.6655 34.7862 72.7511 34.3791 73.3845 33.5648C74.063 32.7053 74.4023 31.4839 74.4023 29.9007V1.74103H88.9231V30.5114C88.9231 33.497 88.4708 36.098 87.566 38.3146C86.7066 40.5312 85.4399 42.3633 83.7662 43.8108C82.1377 45.2584 80.1699 46.3441 77.8629 47.0679C75.5558 47.7916 72.9773 48.1535 70.1274 48.1535ZM70.1274 40.011C63.342 40.011 59.9493 36.6861 59.9493 30.0364V7.1694H58.185V30.0364C58.185 33.8362 59.2029 36.754 61.2385 38.7896C63.3194 40.78 66.2823 41.7752 70.1274 41.7752C73.9725 41.7752 76.9355 40.78 79.0164 38.7896C81.0972 36.754 82.1377 33.8362 82.1377 30.0364V7.1694H80.3056V30.0364C80.3056 36.6861 76.9129 40.011 70.1274 40.011ZM93.4821 1.74103H108.817V47H93.4821V1.74103ZM102.032 41.5716V7.1694H100.268V41.5716H102.032ZM125.57 13.6156H113.085L117.699 1.74103H146.673L130.931 35.1255H145.791L141.245 47H109.828L125.57 13.6156ZM137.716 41.5716L138.395 39.9431H121.906L137.377 7.1694H121.228L120.617 8.79791H134.595L119.124 41.5716H137.716ZM175.7 1.74103H186.556L203.723 47H189.474L187.981 42.9287H174.275L172.782 47H158.532L175.7 1.74103ZM184.181 32.9541L181.128 25.0151L178.074 32.9541H184.181ZM168.643 41.5716L169.932 38.1789H192.324L193.613 41.5716H195.513L182.417 7.1694H179.839L166.743 41.5716H168.643ZM181.128 8.79791L191.713 36.5504H170.543L181.128 8.79791ZM239.956 18.9761C239.956 22.0974 239.413 24.7663 238.328 26.9829C237.242 29.1543 235.749 30.9185 233.849 32.2756C231.995 33.6327 229.801 34.6279 227.267 35.2612C224.779 35.8945 222.088 36.2111 219.193 36.2111V47H204.74V1.74103H219.193C222.088 1.74103 224.779 2.05769 227.267 2.691C229.801 3.32431 231.995 4.31951 233.849 5.6766C235.749 7.03369 237.242 8.82052 238.328 11.0371C239.413 13.2084 239.956 15.8548 239.956 18.9761ZM233.374 18.9761C233.374 16.9404 233.012 15.1762 232.289 13.6834C231.61 12.1906 230.637 10.9692 229.371 10.0193C228.104 9.06932 226.589 8.36816 224.825 7.9158C223.106 7.4182 221.228 7.1694 219.193 7.1694H211.525V41.5716H213.289V30.7828H219.193C221.228 30.7828 223.106 30.5566 224.825 30.1042C226.589 29.6066 228.104 28.8828 229.371 27.9329C230.637 26.9829 231.61 25.7615 232.289 24.2687C233.012 22.7759 233.374 21.0117 233.374 18.9761ZM231.474 18.9761C231.474 20.9212 231.135 22.5498 230.457 23.8616C229.778 25.1735 228.873 26.2139 227.742 26.9829C226.611 27.7519 225.3 28.3174 223.807 28.6793C222.359 28.9959 220.821 29.1543 219.193 29.1543H213.289V8.79791H219.193C220.821 8.79791 222.359 8.97885 223.807 9.34074C225.3 9.6574 226.611 10.2002 227.742 10.9693C228.873 11.7383 229.778 12.7787 230.457 14.0906C231.135 15.4024 231.474 17.0309 231.474 18.9761ZM219.193 23.9973H219.803C221.703 23.9973 223.06 23.5676 223.875 22.7081C224.734 21.8034 225.164 20.5594 225.164 18.9761C225.164 17.3928 224.734 16.1714 223.875 15.3119C223.06 14.4072 221.703 13.9548 219.803 13.9548H219.193V23.9973ZM278.588 18.9761C278.588 22.0974 278.045 24.7663 276.96 26.9829C275.874 29.1543 274.381 30.9185 272.481 32.2756C270.627 33.6327 268.433 34.6279 265.899 35.2612C263.411 35.8945 260.72 36.2111 257.825 36.2111V47H243.372V1.74103H257.825C260.72 1.74103 263.411 2.05769 265.899 2.691C268.433 3.32431 270.627 4.31951 272.481 5.6766C274.381 7.03369 275.874 8.82052 276.96 11.0371C278.045 13.2084 278.588 15.8548 278.588 18.9761ZM272.006 18.9761C272.006 16.9404 271.644 15.1762 270.921 13.6834C270.242 12.1906 269.269 10.9692 268.003 10.0193C266.736 9.06932 265.221 8.36816 263.457 7.9158C261.738 7.4182 259.86 7.1694 257.825 7.1694H250.157V41.5716H251.921V30.7828H257.825C259.86 30.7828 261.738 30.5566 263.457 30.1042C265.221 29.6066 266.736 28.8828 268.003 27.9329C269.269 26.9829 270.242 25.7615 270.921 24.2687C271.644 22.7759 272.006 21.0117 272.006 18.9761ZM270.106 18.9761C270.106 20.9212 269.767 22.5498 269.089 23.8616C268.41 25.1735 267.505 26.2139 266.374 26.9829C265.243 27.7519 263.932 28.3174 262.439 28.6793C260.991 28.9959 259.453 29.1543 257.825 29.1543H251.921V8.79791H257.825C259.453 8.79791 260.991 8.97885 262.439 9.34074C263.932 9.6574 265.243 10.2002 266.374 10.9693C267.505 11.7383 268.41 12.7787 269.089 14.0906C269.767 15.4024 270.106 17.0309 270.106 18.9761ZM257.825 23.9973H258.435C260.335 23.9973 261.692 23.5676 262.507 22.7081C263.366 21.8034 263.796 20.5594 263.796 18.9761C263.796 17.3928 263.366 16.1714 262.507 15.3119C261.692 14.4072 260.335 13.9548 258.435 13.9548H257.825V23.9973Z" fill="#34527C"/>
</svg>
