<svg width="750" height="500" viewBox="0 0 750 500" fill="none" xmlns="http://www.w3.org/2000/svg">
<path d="M475 200.84V244.93C475.066 248.713 476.619 252.319 479.324 254.965C482.028 257.612 485.666 259.086 489.45 259.07H647.52C649.419 259.074 651.301 258.703 653.057 257.98C654.813 257.256 656.409 256.193 657.754 254.852C659.098 253.511 660.166 251.918 660.894 250.164C661.623 248.41 661.999 246.529 662 244.63V207.36L681.68 186.68L489.47 186.08C487.547 186.086 485.645 186.475 483.873 187.222C482.101 187.97 480.496 189.062 479.15 190.435C477.803 191.808 476.743 193.435 476.031 195.221C475.319 197.007 474.968 198.917 475 200.84V200.84Z" fill="#F5F5F5"/>
<path d="M638.66 212.8L495.17 212.13L495.19 207.72L638.67 208.39L638.66 212.8Z" fill="#E0E0E0"/>
<path d="M638.66 227.31L495.17 226.64L495.19 222.23L638.67 222.9L638.66 227.31Z" fill="#E0E0E0"/>
<path d="M581.891 236.757L581.869 241.167L638.638 241.444L638.66 237.035L581.891 236.757Z" fill="#E0E0E0"/>
<path d="M205.47 425.61C227.58 410.16 232.59 381.49 231.72 355.71C231.57 351.41 232.04 346.87 230 343.1C227.96 339.33 223.18 336.74 219.32 338.56C216.13 340.06 214.74 343.78 212.95 346.85C210.563 350.95 207.065 354.292 202.86 356.49C200.12 357.91 196.73 358.78 194.03 357.29C190.31 355.24 189.88 350.11 189.9 345.83L190.05 321.91C190.05 317.63 190.05 313.26 188.76 309.2C187.47 305.14 184.49 301.37 180.42 300.2C176.35 299.03 171.32 301.4 170.42 305.59C170.06 307.33 170.42 309.14 170.29 310.92C170.16 312.7 169.35 314.66 167.66 315.16C165.97 315.66 164.24 314.45 162.96 313.16C158.54 308.84 155.55 303.28 152.75 297.74C149.95 292.2 147.23 286.54 143.22 281.83C139.21 277.12 133.67 273.38 127.54 273.03C121.41 272.68 114.88 276.47 113.34 282.49C111.8 288.51 115.34 294.64 119.13 299.49C124.81 306.749 131.509 313.148 139.02 318.49C140.37 319.49 141.83 320.49 142.35 322.06C143.27 324.92 140.57 327.75 137.76 328.69C134.57 329.75 131.1 329.42 127.76 329.81C124.42 330.2 120.76 331.68 119.55 334.81C117.79 339.18 121.45 343.81 125.05 346.81C132.262 352.83 140.454 357.565 149.27 360.81C152.41 361.96 155.73 362.97 158.27 365.18C160.81 367.39 162.34 371.24 160.81 374.25C159.28 377.26 155.34 378.25 152.04 377.62C148.74 376.99 145.8 375.22 142.65 374.04C136.77 371.82 129.18 372.22 125.41 377.31C122.94 380.65 122.72 385.31 123.97 389.31C125.22 393.31 127.76 396.72 130.46 399.88C139.88 410.94 151.95 419.88 165.59 424.57C179.23 429.26 191.87 430.57 205.43 425.63" fill="#F5F5F5"/>
<path d="M205.8 444.71C204.602 432.76 202.258 420.952 198.8 409.45C194.525 395.409 189.443 381.626 183.58 368.17C182.053 364.577 180.54 361.037 179.04 357.55C177.54 354.07 176.04 350.62 174.39 347.33C171.188 341.029 167.639 334.909 163.76 329C160.09 323.33 156.41 318.08 152.92 313.2C149.43 308.32 146.09 303.85 142.92 299.89C137.87 293.623 132.33 287.767 126.35 282.38C124.24 280.47 122.55 279.04 121.35 278.09L120 277C119.858 276.872 119.704 276.758 119.54 276.66C119.666 276.804 119.803 276.938 119.95 277.06L121.22 278.2C122.34 279.2 124 280.65 126.07 282.59C131.954 288.052 137.419 293.949 142.42 300.23C145.6 304.23 148.91 308.68 152.37 313.57C155.83 318.46 159.49 323.71 163.13 329.38C166.981 335.279 170.507 341.385 173.69 347.67C175.34 350.94 176.81 354.36 178.31 357.85L182.85 368.46C188.698 381.891 193.789 395.64 198.1 409.64C201.57 421.094 203.957 432.849 205.23 444.75" fill="#E0E0E0"/>
<path d="M174.17 347.3C174.381 346.712 174.522 346.101 174.59 345.48C174.82 344.3 175.08 342.57 175.38 340.48C175.99 336.22 176.62 330.31 177.3 323.79C177.98 317.27 178.69 311.38 179.36 307.14C179.69 305.02 179.97 303.31 180.18 302.14C180.329 301.534 180.41 300.914 180.42 300.29C180.175 300.865 179.994 301.465 179.88 302.08C179.58 303.24 179.21 304.95 178.81 307.08C178 311.31 177.19 317.21 176.52 323.75L174.83 340.45C174.62 342.45 174.43 344.15 174.29 345.51C174.189 346.101 174.149 346.701 174.17 347.3V347.3Z" fill="#E0E0E0"/>
<path d="M119.16 337C119.879 337.161 120.613 337.249 121.35 337.26C122.76 337.39 124.81 337.56 127.35 337.85C132.35 338.4 139.35 339.39 146.93 340.85C154.51 342.31 161.36 343.9 166.26 345.2C168.71 345.84 170.69 346.4 172.06 346.79C172.757 347.027 173.473 347.201 174.2 347.31C173.56 346.976 172.891 346.702 172.2 346.49C170.85 346.02 168.9 345.37 166.45 344.66C161.58 343.22 154.75 341.52 147.12 340.07C140.619 338.815 134.056 337.898 127.46 337.32C124.93 337.1 122.87 337.01 121.46 336.99C120.695 336.919 119.925 336.922 119.16 337Z" fill="#E0E0E0"/>
<path d="M198.14 408.44C198.29 408.233 198.414 408.008 198.51 407.77C198.77 407.23 199.08 406.57 199.45 405.77C200.26 404.03 201.37 401.5 202.69 398.34C205.35 392.04 208.74 383.22 212.35 373.44C215.96 363.66 219.27 354.81 221.79 348.44L224.79 340.93C225.11 340.11 225.37 339.43 225.59 338.93C225.708 338.698 225.785 338.448 225.82 338.19C225.669 338.4 225.545 338.629 225.45 338.87C225.19 339.4 224.88 340.06 224.51 340.87C223.7 342.61 222.59 345.14 221.27 348.3C218.61 354.6 215.22 363.42 211.61 373.21C208 383 204.69 391.83 202.17 398.21C200.93 401.3 199.92 403.84 199.17 405.72C198.85 406.54 198.59 407.22 198.37 407.77C198.261 407.981 198.183 408.207 198.14 408.44V408.44Z" fill="#E0E0E0"/>
<path d="M125 384.88C125.231 385.004 125.476 385.102 125.73 385.17L127.85 385.89L135.68 388.42C142.29 390.57 151.38 393.63 161.43 397.03C171.48 400.43 180.61 403.42 187.27 405.43C190.59 406.43 193.27 407.22 195.17 407.72L197.34 408.29C197.59 408.369 197.849 408.419 198.11 408.44C197.881 408.309 197.635 408.208 197.38 408.14L195.26 407.43L187.43 404.89C180.82 402.75 171.72 399.68 161.68 396.28C151.64 392.88 142.5 389.89 135.84 387.88C132.52 386.88 129.84 386.09 127.94 385.59L125.8 385C125.541 384.919 125.271 384.878 125 384.88Z" fill="#E0E0E0"/>
<path d="M256.48 155.21V189.38C256.48 192.349 255.301 195.196 253.203 197.296C251.105 199.396 248.259 200.577 245.29 200.58H122.77C119.801 200.577 116.955 199.396 114.857 197.296C112.759 195.196 111.58 192.349 111.58 189.38V160.51L96.3301 144.51L245.26 144C246.734 143.996 248.194 144.283 249.556 144.845C250.919 145.407 252.157 146.232 253.199 147.274C254.242 148.316 255.068 149.553 255.631 150.915C256.194 152.277 256.483 153.736 256.48 155.21V155.21Z" fill="#E0E0E0"/>
<path d="M129.64 164.72L240.82 164.21L240.81 160.79L129.63 161.3L129.64 164.72Z" fill="#FAFAFA"/>
<path d="M129.64 175.96L240.82 175.45L240.81 172.03L129.63 172.55L129.64 175.96Z" fill="#FAFAFA"/>
<path d="M173.604 183.299L129.615 183.514L129.631 186.934L173.621 186.719L173.604 183.299Z" fill="#FAFAFA"/>
<path d="M196.45 218.27L196.45 453.27C196.45 459.649 201.621 464.82 208 464.82H555.3C561.679 464.82 566.85 459.649 566.85 453.27V218.27C566.85 211.891 561.679 206.72 555.3 206.72H208C201.621 206.72 196.45 211.891 196.45 218.27Z" fill="#263238"/>
<path d="M221.79 214.86L221.79 456.69H531.12V214.86L221.79 214.86Z" fill="white"/>
<path d="M557.906 338.071C559.158 332.748 555.857 327.419 550.535 326.168C545.212 324.917 539.883 328.217 538.632 333.54C537.38 338.862 540.681 344.191 546.003 345.442C551.326 346.694 556.655 343.393 557.906 338.071Z" fill="#455A64"/>
<path d="M207.11 298.12V373.42C207.11 374.094 207.656 374.64 208.33 374.64H209.98C210.654 374.64 211.2 374.094 211.2 373.42V298.12C211.2 297.446 210.654 296.9 209.98 296.9H208.33C207.656 296.9 207.11 297.446 207.11 298.12Z" fill="#455A64"/>
<path d="M436 265.51C436 265.66 409.14 265.78 376 265.78C342.86 265.78 316 265.66 316 265.51C316 265.36 342.85 265.25 376 265.25C409.15 265.25 436 265.37 436 265.51Z" fill="#263238"/>
<path d="M406.5 258.31C406.5 258.46 393.24 258.58 376.88 258.58C360.52 258.58 347.25 258.46 347.25 258.31C347.25 258.16 360.51 258.04 376.88 258.04C393.25 258.04 406.5 258.16 406.5 258.31Z" fill="#263238"/>
<path d="M531.12 214.86H221.79V230.29H531.12V214.86Z" fill="#E0E0E0"/>
<path d="M231.77 222.15C231.77 222.563 231.647 222.967 231.418 223.311C231.188 223.655 230.862 223.923 230.48 224.081C230.098 224.239 229.678 224.28 229.272 224.2C228.867 224.119 228.494 223.92 228.202 223.628C227.91 223.336 227.711 222.963 227.63 222.558C227.549 222.152 227.591 221.732 227.749 221.35C227.907 220.968 228.175 220.642 228.519 220.412C228.862 220.183 229.266 220.06 229.68 220.06C230.234 220.06 230.766 220.28 231.158 220.672C231.55 221.064 231.77 221.596 231.77 222.15V222.15Z" fill="white"/>
<path d="M238.71 222.15C238.71 222.563 238.587 222.967 238.358 223.311C238.128 223.655 237.802 223.923 237.42 224.081C237.038 224.239 236.618 224.28 236.212 224.2C235.807 224.119 235.434 223.92 235.142 223.628C234.85 223.336 234.651 222.963 234.57 222.558C234.49 222.152 234.531 221.732 234.689 221.35C234.847 220.968 235.115 220.642 235.459 220.412C235.803 220.183 236.207 220.06 236.62 220.06C237.174 220.06 237.706 220.28 238.098 220.672C238.49 221.064 238.71 221.596 238.71 222.15Z" fill="white"/>
<path d="M245.66 222.15C245.66 222.563 245.537 222.967 245.308 223.311C245.078 223.655 244.752 223.923 244.37 224.081C243.988 224.239 243.568 224.28 243.162 224.2C242.757 224.119 242.384 223.92 242.092 223.628C241.8 223.336 241.601 222.963 241.52 222.558C241.439 222.152 241.481 221.732 241.639 221.35C241.797 220.968 242.065 220.642 242.409 220.412C242.753 220.183 243.157 220.06 243.57 220.06C244.123 220.063 244.654 220.284 245.045 220.675C245.436 221.066 245.657 221.597 245.66 222.15V222.15Z" fill="white"/>
<path d="M497 277.68C497 277.83 443.33 277.95 377.13 277.95C310.93 277.95 257.25 277.83 257.25 277.68C257.25 277.53 310.92 277.42 377.13 277.42C443.34 277.42 497 277.54 497 277.68Z" fill="#E0E0E0"/>
<path d="M497 283.63C497 283.77 443.33 283.89 377.13 283.89C310.93 283.89 257.25 283.77 257.25 283.63C257.25 283.49 310.92 283.36 377.13 283.36C443.34 283.36 497 283.48 497 283.63Z" fill="#E0E0E0"/>
<path d="M339.7 208.35C339.7 208.35 337.59 203.56 337.19 202.51C336.12 199.64 329.19 180.41 330.86 177.51C338.53 164.04 344.48 154.51 359.61 154.51L386.34 154.33C386.34 154.33 411.66 149.17 429.51 206.77L339.7 208.35Z" fill="#455A64"/>
<path d="M283.32 213.17L318.32 205.63L359.46 184L359.61 154.47C353.44 152.77 341.61 157.05 320.36 167.88L288.77 184.19C286.24 185.494 284.042 187.358 282.341 189.64C280.641 191.922 279.484 194.561 278.959 197.358C278.433 200.155 278.553 203.035 279.309 205.778C280.064 208.522 281.436 211.057 283.32 213.19V213.17Z" fill="#455A64"/>
<path d="M362.08 270.33C361.57 268.67 361.92 267.6 364.34 268.42C369.68 270.21 374.45 269.62 375.61 268.59C376.77 267.56 375.71 265.59 373.97 265.74C372.07 265.735 370.179 265.472 368.35 264.96C366.865 264.607 365.449 264.009 364.16 263.19C363.04 262.48 362.08 261.81 361.23 261.19C361.23 261.19 356.3 257.63 354.76 254.77L337.87 262L340.59 270.46C340.913 271.943 341.606 273.321 342.604 274.464C343.602 275.608 344.874 276.48 346.3 277C351.13 278.57 358.81 278 358.81 278C360.22 277.08 365.65 284.94 367.3 287.71C368.95 290.48 370.9 290.83 371.54 289.14C371.97 287.98 367.14 279.37 365.46 276.66C364.104 274.674 362.97 272.544 362.08 270.31" fill="#B77153"/>
<path d="M350.64 278C350.64 278.06 350.22 278 349.64 277.76C348.89 277.378 348.273 276.779 347.87 276.04C347.456 275.307 347.265 274.47 347.32 273.63C347.38 272.99 347.58 272.63 347.64 272.63C347.565 273.716 347.809 274.8 348.342 275.748C348.875 276.697 349.674 277.469 350.64 277.97V278Z" fill="#995037"/>
<path d="M356 278.25C356 278.31 355.6 278.25 355.06 277.98C354.359 277.587 353.787 277 353.41 276.29C353.023 275.584 352.843 274.784 352.89 273.98C352.95 273.37 353.12 272.98 353.19 273.05C353.221 274.086 353.455 275.105 353.88 276.05C354.441 276.911 355.161 277.657 356 278.25Z" fill="#995037"/>
<path d="M282.32 212C282.32 212 335.94 273.62 335.87 272.6C335.8 271.58 359.87 253.6 359.87 253.6L307.34 191L282.32 212Z" fill="#455A64"/>
<path d="M314.84 199.92C314.84 199.92 314.98 200.03 315.22 200.28L316.22 201.4L319.82 205.56C322.82 209.08 326.99 213.98 331.55 219.41C336.11 224.84 340.22 229.78 343.17 233.41L346.64 237.68L347.57 238.86C347.77 239.13 347.88 239.28 347.86 239.29C347.722 239.186 347.598 239.065 347.49 238.93L346.49 237.81C345.58 236.81 344.37 235.36 342.89 233.65C339.89 230.13 335.71 225.23 331.15 219.8C326.59 214.37 322.49 209.43 319.53 205.8L316.06 201.53C315.69 201.06 315.38 200.67 315.14 200.35C315.023 200.219 314.923 200.075 314.84 199.92V199.92Z" fill="#263238"/>
<path d="M409.69 207C410.052 205.695 410.267 204.353 410.33 203C410.363 201.398 410.07 199.805 409.469 198.32C408.867 196.835 407.969 195.487 406.83 194.36C405.53 192.99 404.13 191.81 403 190.57C401.965 189.491 401.15 188.22 400.6 186.83C400.223 185.878 400.072 184.851 400.16 183.83C400.18 183.458 400.275 183.094 400.44 182.76C400.261 184.082 400.437 185.428 400.95 186.66C401.535 187.978 402.351 189.18 403.36 190.21C404.48 191.4 405.88 192.56 407.21 193.96C408.508 195.263 409.496 196.843 410.1 198.58C410.579 199.995 410.786 201.488 410.71 202.98C410.664 203.982 410.472 204.973 410.14 205.92C410.051 206.302 409.899 206.667 409.69 207Z" fill="#263238"/>
<path d="M337.37 159.6C337.37 159.6 337.64 159.46 338.15 159.23C338.66 159 339.45 158.71 340.47 158.39C341.721 158.005 343.008 157.744 344.31 157.61C346.051 157.421 347.813 157.584 349.49 158.09C351.523 158.736 353.348 159.909 354.78 161.49C356.407 163.339 357.518 165.585 358 168C358.604 170.621 358.777 173.323 358.51 176C358.191 178.875 357.16 181.624 355.51 184C353.767 186.299 351.589 188.232 349.1 189.69C346.75 191.17 344.39 192.37 342.15 193.55L330.24 199.81L322.24 203.98L320.04 205.09C319.789 205.233 319.524 205.35 319.25 205.44C319.486 205.274 319.734 205.123 319.99 204.99L322.14 203.79L330.14 199.47L341.98 193.12C344.21 191.93 346.58 190.71 348.89 189.24C351.316 187.813 353.443 185.928 355.15 183.69C356.746 181.375 357.736 178.696 358.03 175.9C358.29 173.292 358.132 170.658 357.56 168.1C357.122 165.779 356.089 163.611 354.56 161.81C353.193 160.265 351.44 159.112 349.48 158.47C347.865 157.963 346.167 157.776 344.48 157.92C343.191 158.03 341.916 158.261 340.67 158.61C339.67 158.9 338.86 159.16 338.33 159.35C338.021 159.472 337.699 159.556 337.37 159.6V159.6Z" fill="#263238"/>
<path d="M320.74 205.57C320.56 205.62 320.12 202.03 317.74 198.42C315.36 194.81 312.32 192.91 312.44 192.77C313.172 193.059 313.848 193.472 314.44 193.99C317.407 196.338 319.517 199.6 320.44 203.27C320.672 204.014 320.773 204.792 320.74 205.57V205.57Z" fill="#263238"/>
<path d="M399.54 198.87C399.17 199.008 398.789 199.112 398.4 199.18C397.287 199.395 396.148 199.445 395.02 199.33C393.226 199.144 391.494 198.575 389.94 197.66C387.871 196.428 386.233 194.588 385.25 192.39C384.036 189.719 383.806 186.704 384.6 183.88C385.048 182.279 386.051 180.889 387.43 179.96C388.183 179.46 389.1 179.27 389.99 179.43C390.885 179.637 391.675 180.163 392.21 180.91C393.198 182.484 393.819 184.261 394.027 186.108C394.235 187.955 394.024 189.825 393.41 191.58C392.813 193.457 391.785 195.169 390.41 196.58C388.968 198.022 387.171 199.057 385.2 199.58C383.259 200.116 381.213 200.151 379.255 199.682C377.296 199.214 375.489 198.256 374 196.9C372.673 195.595 371.677 193.993 371.095 192.226C370.512 190.459 370.36 188.578 370.65 186.74C370.904 185.028 371.593 183.41 372.65 182.04C373.178 181.371 373.866 180.844 374.65 180.51C375.438 180.184 376.322 180.184 377.11 180.51C377.82 180.842 378.433 181.352 378.89 181.989C379.347 182.627 379.633 183.371 379.72 184.15C379.83 185.559 379.55 186.97 378.91 188.23C377.849 190.367 376.405 192.293 374.65 193.91C373.337 195.129 371.867 196.168 370.28 197C369.281 197.529 368.237 197.968 367.16 198.31C366.8 198.43 366.51 198.49 366.32 198.54C366.223 198.573 366.122 198.593 366.02 198.6C366.107 198.549 366.202 198.512 366.3 198.49C366.49 198.42 366.77 198.34 367.13 198.2C368.182 197.822 369.202 197.36 370.18 196.82C371.732 195.964 373.167 194.912 374.45 193.69C376.15 192.084 377.546 190.183 378.57 188.08C379.164 186.878 379.419 185.536 379.31 184.2C379.225 183.497 378.963 182.828 378.548 182.254C378.134 181.68 377.58 181.221 376.94 180.92C376.261 180.64 375.499 180.64 374.82 180.92C374.112 181.228 373.493 181.709 373.02 182.32C372.002 183.625 371.341 185.172 371.1 186.81C370.828 188.566 370.978 190.362 371.538 192.049C372.098 193.736 373.052 195.265 374.32 196.51C375.747 197.79 377.474 198.69 379.341 199.125C381.208 199.56 383.154 199.517 385 199C386.886 198.528 388.612 197.562 390 196.2C391.326 194.864 392.322 193.238 392.91 191.45C393.481 189.721 393.682 187.892 393.5 186.08C393.424 185.204 393.239 184.341 392.95 183.51C392.71 182.695 392.331 181.927 391.83 181.24C391.363 180.584 390.674 180.118 389.89 179.93C389.122 179.79 388.329 179.955 387.68 180.39C386.385 181.236 385.435 182.516 385 184C384.214 186.724 384.413 189.638 385.56 192.23C386.495 194.377 388.07 196.183 390.07 197.4C391.578 198.321 393.266 198.908 395.02 199.12C396.53 199.288 398.058 199.204 399.54 198.87V198.87Z" fill="#FAFAFA"/>
<path d="M403.58 138.87C402.442 137.483 401.625 135.861 401.19 134.12C401.01 133.56 400.99 132.961 401.13 132.39C401.202 132.103 401.368 131.848 401.602 131.667C401.836 131.485 402.124 131.388 402.42 131.39C403.02 131.39 403.42 132 403.75 132.51C404.728 133.982 405.552 135.55 406.21 137.19C406.404 137.638 406.502 138.122 406.5 138.61C406.498 138.854 406.433 139.093 406.312 139.305C406.191 139.516 406.019 139.694 405.81 139.82C405.564 139.927 405.293 139.964 405.027 139.929C404.761 139.894 404.51 139.787 404.3 139.62C403.898 139.279 403.559 138.869 403.3 138.41" fill="#995037"/>
<path d="M406.15 137.76L403.51 132.22C403.211 131.69 403.024 131.105 402.96 130.5C402.934 130.196 403.002 129.892 403.154 129.627C403.306 129.363 403.535 129.151 403.81 129.02C404.065 128.947 404.335 128.943 404.592 129.01C404.849 129.077 405.083 129.212 405.27 129.4C405.646 129.773 405.948 130.214 406.16 130.7L407.41 133.13C407.78 133.774 408.056 134.468 408.23 135.19C408.315 135.554 408.322 135.932 408.252 136.299C408.181 136.666 408.034 137.014 407.82 137.32C407.591 137.616 407.267 137.824 406.903 137.91C406.539 137.995 406.157 137.953 405.82 137.79" fill="#995037"/>
<path d="M394.4 154.89C394.4 154.89 390.72 150.12 390.4 147.61C390.08 145.1 393.15 140.61 399.76 139.61C402.172 139.357 404.496 138.564 406.56 137.29C406.966 137.014 407.264 136.607 407.404 136.137C407.544 135.667 407.518 135.163 407.33 134.71C406.46 132.6 404.9 128.71 405.02 128.16C405.33 126.81 406.21 126.84 408.49 130.16C410.77 133.48 413.42 136.9 412.91 138.44C412.4 139.98 404.34 144.75 404.34 144.75L406.54 148.3L394.4 154.89Z" fill="#B77153"/>
<path d="M416.26 203.93L390.89 154.22L407.23 145.07L441.55 199.47C441.55 199.47 443.36 202.95 445.89 207.02H417.12" fill="#455A64"/>
<path d="M407 145.07C407 145.07 406.91 145.15 406.72 145.27L405.86 145.79L402.58 147.7L390.78 154.42L390.87 154.12C393.34 159.12 396.55 164.97 399.78 171.3C404.59 180.65 408.78 189.22 411.68 195.46C413.14 198.58 414.3 201.12 415.09 202.87C415.46 203.72 415.76 204.39 415.98 204.87C416.098 205.099 416.192 205.341 416.26 205.59C416.11 205.377 415.983 205.149 415.88 204.91C415.64 204.41 415.31 203.75 414.88 202.91L411.32 195.57C408.32 189.38 404.1 180.84 399.32 171.49C396.09 165.17 392.9 159.34 390.47 154.28L390.38 154.08L390.57 153.97L402.46 147.42L405.81 145.61L406.7 145.15C406.796 145.11 406.897 145.083 407 145.07V145.07Z" fill="#263238"/>
<path d="M339.7 208.35C337.51 204.785 336.07 200.811 335.47 196.67C335.63 196.67 336.32 199.33 337.47 202.54C338.62 205.75 339.84 208.28 339.7 208.35Z" fill="#263238"/>
<path d="M395.58 135.07C397.596 135.888 399.823 136.025 401.924 135.463C404.026 134.9 405.886 133.668 407.224 131.953C408.562 130.237 409.303 128.132 409.337 125.957C409.371 123.782 408.694 121.656 407.41 119.9C413.14 118.45 416.71 111.84 415.55 106.04C414.39 100.24 409.22 95.72 403.44 94.47C401.23 93.9401 398.92 93.9987 396.74 94.64C395.656 94.9727 394.653 95.5254 393.793 96.2636C392.932 97.0017 392.233 97.9095 391.74 98.93" fill="#263238"/>
<path d="M394.77 122.11C394.77 122.17 394.03 122.31 392.82 122.94C391.118 123.846 389.769 125.297 388.99 127.06C388.417 128.351 388.176 129.764 388.288 131.171C388.399 132.579 388.861 133.936 389.63 135.12C390.069 135.804 390.608 136.417 391.23 136.94C391.868 137.494 392.59 137.943 393.37 138.27C395.01 138.981 396.834 139.149 398.577 138.752C400.32 138.354 401.89 137.411 403.06 136.06C403.618 135.424 404.073 134.706 404.41 133.93C404.739 133.189 404.958 132.404 405.06 131.6C405.205 130.425 405.104 129.232 404.764 128.098C404.425 126.963 403.853 125.912 403.086 125.01C402.32 124.107 401.374 123.374 400.309 122.856C399.244 122.338 398.083 122.046 396.9 122C395.53 121.95 394.78 122.17 394.77 122.1C394.942 122.026 395.124 121.976 395.31 121.95C395.832 121.838 396.366 121.785 396.9 121.79C398.595 121.794 400.253 122.289 401.673 123.215C403.093 124.142 404.214 125.46 404.9 127.01C405.545 128.466 405.784 130.069 405.59 131.65C405.502 132.504 405.276 133.339 404.92 134.12C404.574 134.949 404.094 135.716 403.5 136.39C402.262 137.831 400.594 138.837 398.742 139.26C396.89 139.683 394.951 139.501 393.21 138.74C392.386 138.386 391.623 137.903 390.95 137.31C390.293 136.758 389.726 136.107 389.27 135.38C388.419 134.036 387.939 132.49 387.88 130.9C387.824 129.215 388.256 127.55 389.124 126.104C389.991 124.659 391.257 123.494 392.77 122.75C393.25 122.508 393.757 122.323 394.28 122.2C394.439 122.152 394.604 122.121 394.77 122.11V122.11Z" fill="#FF725E"/>
<path d="M399.11 106.35C401.197 106.231 403.191 105.451 404.804 104.122C406.417 102.792 407.564 100.984 408.079 98.9582C408.594 96.9326 408.45 94.7956 407.668 92.8575C406.886 90.9193 405.507 89.2809 403.73 88.18C404.591 85.7672 404.67 83.1448 403.958 80.6841C403.246 78.2233 401.778 76.0489 399.762 74.4685C397.746 72.8881 395.284 71.9819 392.724 71.8781C390.165 71.7742 387.637 72.4781 385.5 73.89C383.875 71.0081 381.406 68.6929 378.426 67.2558C375.446 65.8187 372.097 65.3285 368.83 65.8513C365.563 66.374 362.534 67.8845 360.151 70.1798C357.768 72.475 356.145 75.4449 355.5 78.69C352.571 77.4791 349.343 77.1855 346.244 77.8481C343.144 78.5107 340.318 80.0982 338.14 82.4009C335.962 84.7036 334.534 87.6131 334.045 90.7447C333.556 93.8763 334.028 97.0827 335.4 99.94C332.193 100.213 329.227 101.749 327.153 104.209C325.079 106.67 324.067 109.854 324.34 113.06C324.613 116.266 326.149 119.233 328.609 121.307C331.07 123.381 334.253 124.393 337.46 124.12C336.812 126.236 336.836 128.5 337.529 130.602C338.221 132.704 339.548 134.539 341.327 135.855C343.106 137.171 345.249 137.903 347.461 137.951C349.674 137.998 351.846 137.359 353.68 136.12C354.851 138.008 356.535 139.524 358.535 140.492C360.536 141.459 362.77 141.838 364.977 141.585C367.184 141.331 369.274 140.455 371.003 139.059C372.731 137.663 374.027 135.805 374.74 133.7" fill="#263238"/>
<path d="M387.07 153.27C387.28 148.4 387.54 143.99 387.54 143.99C387.54 143.99 398.43 142.62 398.9 131.51C399.37 120.4 398.26 94.82 398.26 94.82L378.26 85.2L356.7 102.56L360.08 153.56C360.317 157.094 361.929 160.394 364.57 162.753C367.212 165.112 370.672 166.342 374.21 166.18V166.18C377.577 166.019 380.763 164.605 383.142 162.217C385.521 159.829 386.922 156.638 387.07 153.27V153.27Z" fill="#B77153"/>
<path d="M397.73 113.84C397.55 114.03 396.51 113.16 395.02 113.1C393.53 113.04 392.42 113.8 392.27 113.6C392.12 113.4 392.37 113.17 392.85 112.81C393.495 112.359 394.274 112.137 395.06 112.18C395.849 112.212 396.604 112.504 397.21 113.01C397.66 113.41 397.81 113.76 397.73 113.84Z" fill="#263238"/>
<path d="M381.21 113.84C381.03 114.03 380 113.16 378.5 113.1C377 113.04 375.91 113.8 375.75 113.6C375.59 113.4 375.85 113.17 376.33 112.81C376.975 112.359 377.753 112.137 378.54 112.18C379.328 112.212 380.084 112.504 380.69 113.01C381.14 113.41 381.29 113.76 381.21 113.84Z" fill="#263238"/>
<path d="M386.81 125.05C387.599 124.815 388.417 124.69 389.24 124.68C389.62 124.68 389.98 124.58 390.05 124.31C390.09 123.89 390.011 123.467 389.82 123.09C389.473 122.09 389.113 121.04 388.74 119.94C387.24 115.45 386.17 111.77 386.34 111.71C386.51 111.65 387.85 115.24 389.34 119.71L390.34 122.88C390.565 123.385 390.625 123.949 390.51 124.49C390.452 124.627 390.365 124.748 390.254 124.847C390.143 124.946 390.012 125.018 389.87 125.06C389.661 125.115 389.446 125.138 389.23 125.13C388.423 125.211 387.61 125.184 386.81 125.05V125.05Z" fill="#263238"/>
<path d="M387.54 144C382.379 143.865 377.37 142.224 373.13 139.28C373.13 139.28 376.52 147.37 387.35 146.73L387.54 144Z" fill="#995037"/>
<path d="M372.08 85.82C370.345 88.3241 369.433 91.3059 369.469 94.3519C369.504 97.3979 370.487 100.357 372.28 102.82C373.9 104.94 376.34 106.67 379.01 106.57C381.68 106.47 384.26 103.95 383.69 101.34C383.43 102.159 383.365 103.028 383.5 103.877C383.636 104.725 383.967 105.531 384.468 106.229C384.97 106.927 385.627 107.498 386.388 107.897C387.149 108.296 387.993 108.512 388.853 108.528C389.712 108.543 390.563 108.358 391.338 107.986C392.113 107.615 392.79 107.067 393.317 106.388C393.843 105.708 394.203 104.915 394.368 104.072C394.534 103.228 394.5 102.358 394.27 101.53C394.478 102.73 394.901 103.881 395.52 104.93C395.837 105.453 396.29 105.88 396.83 106.166C397.371 106.451 397.979 106.584 398.59 106.55C400.26 106.33 401.23 104.55 401.59 102.88C402.107 100.396 401.989 97.821 401.246 95.3946C400.503 92.9681 399.16 90.7686 397.34 89C395.492 87.2681 393.303 85.9406 390.913 85.102C388.523 84.2635 385.985 83.9325 383.46 84.13C378.381 84.5771 373.59 86.6859 369.83 90.13" fill="#263238"/>
<path d="M373.49 89.74C374.899 92.8897 375.661 96.2903 375.73 99.74C375.79 103.209 374.499 106.565 372.13 109.1C370.931 110.334 369.407 111.202 367.734 111.604C366.061 112.006 364.308 111.925 362.68 111.37C363.118 112.859 363.222 114.426 362.984 115.96C362.745 117.493 362.17 118.955 361.3 120.24C359.44 122.71 355.78 123.89 353.07 122.4C350.61 121.06 349.55 118.08 349.21 115.3C348.802 111.926 349.155 108.503 350.244 105.283C351.332 102.063 353.129 99.1286 355.501 96.6948C357.874 94.2609 360.762 92.3898 363.953 91.2191C367.144 90.0485 370.556 89.6079 373.94 89.93" fill="#263238"/>
<path d="M359.75 116.21C358.27 115.29 356.25 116.04 355.07 117.33C354.141 118.35 353.567 119.643 353.434 121.016C353.301 122.389 353.616 123.769 354.331 124.948C355.047 126.128 356.125 127.044 357.405 127.559C358.684 128.075 360.096 128.163 361.43 127.81" fill="#B77153"/>
<path d="M359.41 124.48C359.41 124.54 358.92 124.61 358.15 124.4C357.64 124.268 357.168 124.018 356.772 123.671C356.376 123.324 356.067 122.888 355.87 122.4C355.668 121.82 355.689 121.185 355.93 120.62C356.132 120.18 356.45 119.803 356.85 119.53C357.54 119.08 358.06 119.09 358.07 119.15C358.08 119.21 357.62 119.36 357.07 119.83C356.72 120.11 356.465 120.489 356.338 120.919C356.211 121.348 356.219 121.805 356.36 122.23C356.535 122.653 356.794 123.035 357.123 123.353C357.451 123.671 357.842 123.919 358.27 124.08C359 124.33 359.42 124.4 359.41 124.48Z" fill="#995037"/>
<path d="M382.13 109.21C381.99 109.64 380.36 109.48 378.43 109.57C376.5 109.66 374.89 109.9 374.72 109.48C374.55 109.06 376.12 108.05 378.37 107.97C380.62 107.89 382.28 108.8 382.13 109.21Z" fill="#263238"/>
<path d="M397.69 108.9C397.52 109.05 397.19 108.9 396.8 108.85C396.355 108.743 395.894 108.716 395.44 108.77C394.86 108.77 394.22 108.93 393.73 108.92C393.24 108.91 392.9 108.81 392.84 108.59C392.78 108.37 393 108.11 393.41 107.83C393.98 107.466 394.627 107.24 395.3 107.17C395.693 107.119 396.092 107.161 396.466 107.293C396.839 107.425 397.176 107.643 397.45 107.93C397.82 108.38 397.85 108.76 397.69 108.9Z" fill="#263238"/>
<path d="M384.22 127.89C384.631 127.624 385.096 127.45 385.581 127.381C386.066 127.312 386.561 127.349 387.03 127.49C387.494 127.65 387.887 127.968 388.141 128.389C388.395 128.809 388.494 129.305 388.42 129.79C388.284 130.311 387.964 130.765 387.52 131.07C387.196 131.321 386.823 131.5 386.425 131.597C386.027 131.693 385.613 131.704 385.21 131.63C384.806 131.55 384.432 131.361 384.127 131.085C383.823 130.808 383.599 130.454 383.48 130.06C383.381 129.661 383.416 129.241 383.581 128.865C383.745 128.489 384.03 128.178 384.39 127.98" fill="#995037"/>
<path d="M389.68 129.08C389.68 129.08 389.32 129.39 388.61 129.54C387.664 129.736 386.681 129.642 385.79 129.27C384.901 128.895 384.142 128.265 383.61 127.46C383.21 126.85 383.13 126.4 383.19 126.37C383.25 126.34 383.47 126.72 383.91 127.24C384.478 127.904 385.189 128.43 385.99 128.78C386.802 129.105 387.678 129.238 388.55 129.17C389.23 129.12 389.65 129 389.68 129.08Z" fill="#263238"/>
<path d="M367.13 134.38C367.06 134.38 367.13 133.6 366.75 132.28C366.247 130.423 365.134 128.789 363.59 127.64C362.538 126.848 361.316 126.314 360.02 126.08C358.536 125.816 357.008 125.947 355.59 126.46C354.825 126.736 354.107 127.127 353.46 127.62C352.776 128.116 352.178 128.721 351.69 129.41C350.632 130.849 350.061 132.589 350.061 134.375C350.061 136.161 350.632 137.901 351.69 139.34C352.178 140.029 352.776 140.634 353.46 141.13C354.107 141.623 354.825 142.014 355.59 142.29C356.703 142.693 357.887 142.861 359.068 142.782C360.249 142.704 361.4 142.381 362.45 141.833C363.499 141.286 364.423 140.527 365.163 139.604C365.904 138.68 366.444 137.613 366.75 136.47C367.1 135.15 367.06 134.37 367.13 134.38C367.145 134.563 367.145 134.747 367.13 134.93C367.129 135.466 367.065 135.999 366.94 136.52C366.492 138.465 365.382 140.193 363.8 141.41C362.711 142.261 361.436 142.843 360.08 143.11C358.516 143.41 356.9 143.286 355.4 142.75C354.589 142.465 353.827 142.057 353.14 141.54C352.412 141.017 351.773 140.378 351.25 139.65C350.115 138.126 349.501 136.276 349.501 134.375C349.501 132.474 350.115 130.624 351.25 129.1C351.773 128.372 352.412 127.733 353.14 127.21C353.827 126.693 354.589 126.285 355.4 126C356.799 125.493 358.304 125.35 359.773 125.585C361.242 125.819 362.628 126.423 363.8 127.34C365.382 128.557 366.492 130.285 366.94 132.23C367.065 132.751 367.129 133.284 367.13 133.82C367.145 134.006 367.145 134.194 367.13 134.38V134.38Z" fill="#FF725E"/>
<path d="M397.68 84.66C397.777 84.6666 397.871 84.6903 397.96 84.73C398.22 84.8328 398.458 84.9856 398.66 85.18C399.037 85.5556 399.316 86.0188 399.472 86.5282C399.627 87.0377 399.654 87.5776 399.55 88.1C399.338 88.8936 398.896 89.6071 398.281 90.1513C397.666 90.6955 396.903 91.0464 396.09 91.16C394.032 91.4071 391.954 90.9105 390.23 89.76L388.17 88.57L390.43 89.31C390.818 89.4476 391.166 89.681 391.441 89.9886C391.715 90.2963 391.907 90.6682 392 91.07C392.108 91.4696 392.136 91.8869 392.081 92.2973C392.026 92.7077 391.89 93.103 391.68 93.46C391.222 94.1781 390.506 94.6934 389.68 94.9C388.847 95.1102 387.972 95.0894 387.15 94.84C385.309 94.1227 383.77 92.7955 382.79 91.08L381.27 89L383.11 90.79C383.586 91.2818 383.928 91.8876 384.103 92.5495C384.278 93.2113 384.281 93.907 384.11 94.57C383.976 95.1758 383.707 95.7435 383.323 96.2302C382.938 96.7169 382.448 97.1101 381.89 97.38C380.973 97.8153 379.952 97.9816 378.945 97.8594C377.938 97.7373 376.986 97.3318 376.2 96.69C375.163 95.8468 374.397 94.7163 374 93.44C373.895 93.1131 373.815 92.7789 373.76 92.44C373.749 92.3203 373.749 92.1997 373.76 92.08C373.81 92.08 373.87 92.56 374.19 93.39C374.632 94.5711 375.39 95.6086 376.38 96.39C377.124 96.9637 378.012 97.3189 378.947 97.4161C379.881 97.5132 380.824 97.3484 381.67 96.94C382.163 96.6935 382.595 96.339 382.933 95.9027C383.27 95.4664 383.505 94.9596 383.62 94.42C383.766 93.8412 383.762 93.235 383.61 92.6579C383.458 92.0808 383.162 91.5517 382.75 91.12L383.14 90.79C384.058 92.3952 385.493 93.6428 387.21 94.33C387.911 94.5895 388.677 94.619 389.396 94.414C390.115 94.209 390.751 93.7803 391.21 93.19C391.93 92.01 391.5 90.19 390.28 89.78L390.48 89.33C392.095 90.4396 394.049 90.9458 396 90.76C396.754 90.6706 397.465 90.3613 398.045 89.8705C398.625 89.3797 399.047 88.7292 399.26 88C399.364 87.518 399.354 87.0183 399.231 86.5407C399.108 86.0632 398.875 85.6212 398.55 85.25C398.289 85.014 397.996 84.8154 397.68 84.66V84.66Z" fill="#455A64"/>
<path d="M371 102.53C371 102.53 371 102.6 370.87 102.72C370.726 102.898 370.569 103.065 370.4 103.22C369.753 103.808 368.995 104.261 368.17 104.55C366.878 105 365.475 105.021 364.17 104.61C363.305 104.339 362.505 103.896 361.817 103.306C361.13 102.716 360.569 101.993 360.17 101.18L360.59 101.12C360.428 102.133 360.027 103.092 359.421 103.92C358.815 104.747 358.022 105.419 357.105 105.879C356.189 106.339 355.176 106.575 354.15 106.567C353.125 106.559 352.116 106.307 351.207 105.833C350.298 105.358 349.515 104.674 348.922 103.837C348.329 103 347.944 102.035 347.797 101.02C347.651 100.005 347.748 98.9693 348.081 97.9992C348.413 97.0291 348.972 96.1519 349.71 95.44L350.06 95.81C348.879 96.7908 347.395 97.3315 345.86 97.34C344.467 97.367 343.095 96.9921 341.91 96.26C340.85 95.6022 340.022 94.6305 339.54 93.48C339.148 92.4996 338.98 91.4437 339.05 90.39C339.134 88.8929 339.711 87.4655 340.69 86.33C341.032 85.9249 341.446 85.586 341.91 85.33C341.91 85.33 341.46 85.67 340.83 86.46C339.935 87.6071 339.425 89.0065 339.37 90.46C339.328 91.4606 339.509 92.4578 339.9 93.38C340.367 94.4398 341.149 95.3302 342.14 95.93C343.254 96.6136 344.543 96.9608 345.85 96.93C347.267 96.9102 348.635 96.4095 349.73 95.51L350.07 95.88C349.219 96.7523 348.645 97.8562 348.419 99.0534C348.193 100.251 348.326 101.488 348.8 102.61C349.381 103.835 350.352 104.833 351.561 105.446C352.77 106.06 354.148 106.255 355.48 106C356.646 105.725 357.708 105.12 358.538 104.256C359.369 103.392 359.932 102.306 360.16 101.13L360.27 100.43L360.58 101.07C360.944 101.834 361.457 102.518 362.089 103.081C362.721 103.644 363.459 104.076 364.26 104.35C365.51 104.766 366.86 104.766 368.11 104.35C368.918 104.101 369.671 103.701 370.33 103.17C370.81 102.75 371 102.51 371 102.53Z" fill="#455A64"/>
<path d="M351.21 120.31C350.958 120.541 350.662 120.718 350.34 120.83C349.465 121.194 348.514 121.342 347.57 121.26C346.108 121.152 344.744 120.486 343.76 119.4C343.14 118.713 342.682 117.895 342.42 117.007C342.159 116.119 342.101 115.184 342.25 114.27L342.71 114.47C341.722 115.778 340.437 116.83 338.96 117.54C337.821 118.081 336.57 118.345 335.31 118.31C334.136 118.277 332.986 117.961 331.96 117.39C331.073 116.933 330.316 116.261 329.759 115.434C329.201 114.607 328.861 113.653 328.77 112.66C328.651 111.331 329.005 110.003 329.77 108.91C329.986 108.625 330.238 108.37 330.52 108.15C330.613 108.064 330.722 107.996 330.84 107.95C330.84 107.95 330.45 108.29 329.94 109.03C329.27 110.104 328.982 111.372 329.12 112.63C329.224 113.559 329.561 114.446 330.099 115.21C330.637 115.974 331.36 116.59 332.2 117C333.203 117.531 334.319 117.816 335.454 117.832C336.589 117.847 337.712 117.593 338.73 117.09C340.131 116.422 341.355 115.431 342.3 114.2L342.95 113.36L342.76 114.36C342.618 115.199 342.664 116.059 342.894 116.879C343.124 117.698 343.532 118.457 344.09 119.1C344.992 120.131 346.248 120.787 347.61 120.94C348.509 121.045 349.42 120.953 350.28 120.67C350.88 120.46 351.19 120.28 351.21 120.31Z" fill="#455A64"/>
<path d="M407.84 98.65C408.081 99.2348 408.158 99.8748 408.06 100.5C407.942 102.038 407.294 103.487 406.227 104.601C405.161 105.715 403.741 106.425 402.21 106.61C401.592 106.741 400.951 106.692 400.36 106.47C400.36 106.38 401.07 106.47 402.15 106.24C403.561 105.974 404.854 105.272 405.846 104.234C406.837 103.195 407.479 101.872 407.68 100.45C407.86 99.36 407.75 98.66 407.84 98.65Z" fill="#455A64"/>
<path d="M414 109.12C414.136 109.353 414.221 109.612 414.25 109.88C414.37 110.616 414.297 111.37 414.04 112.07C413.857 112.615 413.539 113.105 413.116 113.495C412.693 113.885 412.178 114.162 411.62 114.3C410.95 114.437 410.255 114.375 409.62 114.12C409.264 113.985 408.939 113.779 408.666 113.514C408.392 113.25 408.176 112.932 408.03 112.58L408.53 112.41C408.621 112.735 408.665 113.072 408.66 113.41C408.63 114.182 408.377 114.93 407.932 115.562C407.487 116.193 406.868 116.683 406.15 116.97C405.508 117.205 404.81 117.237 404.15 117.06C403.593 116.901 403.081 116.617 402.65 116.23C402.015 115.691 401.588 114.949 401.44 114.13C401.35 113.56 401.44 113.24 401.44 113.25C401.44 113.26 401.44 113.56 401.61 114.09C401.828 114.82 402.265 115.465 402.86 115.94C403.277 116.298 403.782 116.539 404.323 116.64C404.864 116.74 405.422 116.695 405.94 116.51C406.556 116.249 407.086 115.818 407.466 115.267C407.847 114.716 408.063 114.069 408.09 113.4C408.095 113.123 408.058 112.846 407.98 112.58L408.49 112.41C408.759 112.949 409.2 113.384 409.743 113.645C410.286 113.905 410.901 113.978 411.49 113.85C411.98 113.737 412.435 113.506 412.815 113.176C413.195 112.847 413.488 112.429 413.67 111.96C413.935 111.328 414.055 110.644 414.02 109.96C414 109.4 413.91 109.13 414 109.12Z" fill="#455A64"/>
<path d="M383.46 124C383.53 124 383.57 124.23 383.46 124.57C383.324 125.009 383.061 125.398 382.706 125.69C382.35 125.981 381.917 126.162 381.46 126.21C381.11 126.21 380.9 126.15 380.91 126.08C380.92 126.01 381.68 125.86 382.36 125.27C383.04 124.68 383.31 124 383.46 124Z" fill="#263238"/>
<path d="M669.18 464.82C669.18 464.97 540.18 465.08 381.06 465.08C221.94 465.08 92.8999 465 92.8999 464.82C92.8999 464.64 221.9 464.56 381.06 464.56C540.22 464.56 669.18 464.68 669.18 464.82Z" fill="#263238"/>
<path d="M621.81 410.79C619.31 414.35 614.46 413.17 612.21 411C609.96 408.83 609.01 405.67 608.14 402.66C606.14 395.79 604.14 388.58 605.64 381.58C605.995 379.458 606.93 377.475 608.34 375.85C609.049 375.046 609.958 374.445 610.975 374.106C611.992 373.767 613.08 373.703 614.13 373.92C616.58 374.56 618.13 376.92 619.2 379.24C622.446 385.967 624.154 393.331 624.2 400.8C624.2 404.28 623.8 407.92 621.84 410.8" fill="#26994D"/>
<g opacity="0.2">
<path d="M621.81 410.79C619.31 414.35 614.46 413.17 612.21 411C609.96 408.83 609.01 405.67 608.14 402.66C606.14 395.79 604.14 388.58 605.64 381.58C605.995 379.458 606.93 377.475 608.34 375.85C609.049 375.046 609.958 374.445 610.975 374.106C611.992 373.767 613.08 373.703 614.13 373.92C616.58 374.56 618.13 376.92 619.2 379.24C622.446 385.967 624.154 393.331 624.2 400.8C624.2 404.28 623.8 407.92 621.84 410.8" fill="black"/>
</g>
<path d="M612.46 428.85C608.265 426.875 603.546 426.3 599 427.21C596.57 427.62 594 428.35 592.37 430.21C590.74 432.07 590.37 435.26 592.3 436.83C593.526 437.662 595.005 438.037 596.48 437.89C600.03 437.89 603.97 437.23 606.8 439.36C608.42 440.58 609.5 442.61 611.43 443.21C612.393 443.424 613.4 443.321 614.301 442.918C615.201 442.514 615.948 441.831 616.43 440.97C617.351 439.19 617.555 437.125 617 435.2C616.783 433.863 616.261 432.595 615.474 431.493C614.686 430.392 613.655 429.487 612.46 428.85Z" fill="#26994D"/>
<path d="M628.67 415.9C625.95 412.69 625.44 408 626.67 403.97C628.038 399.965 630.484 396.414 633.74 393.71C637.433 390.42 641.734 387.882 646.4 386.24C648.204 385.493 650.149 385.152 652.1 385.24C653.069 385.3 654.01 385.594 654.841 386.097C655.672 386.6 656.368 387.298 656.87 388.13C658.21 390.67 656.93 393.75 655.55 396.27C653.109 400.726 650.32 404.983 647.21 409C644.72 412.22 641.86 415.39 638.06 416.84C634.26 418.29 630.32 418.12 628.3 415.49" fill="#26994D"/>
<path d="M622 464.57C621.866 464.04 621.788 463.497 621.77 462.95C621.66 461.78 621.51 460.29 621.34 458.53C621.118 456.354 620.784 454.191 620.34 452.05C619.758 449.438 618.969 446.876 617.98 444.39C617.012 441.909 615.696 439.579 614.07 437.47C612.749 435.75 611.062 434.346 609.13 433.36C607.821 432.71 606.416 432.271 604.97 432.06C604.427 432.04 603.887 431.963 603.36 431.83C603.905 431.764 604.455 431.764 605 431.83C606.502 431.947 607.972 432.329 609.34 432.96C611.372 433.926 613.154 435.345 614.55 437.11C616.24 439.251 617.605 441.63 618.6 444.17C619.602 446.691 620.385 449.294 620.94 451.95C621.362 454.12 621.649 456.314 621.8 458.52C621.94 460.4 622 461.92 622.02 462.97C622.069 463.503 622.063 464.039 622 464.57V464.57Z" fill="#263238"/>
<path d="M621.67 461.17C621.646 460.921 621.646 460.669 621.67 460.42C621.67 459.86 621.67 459.14 621.67 458.27C621.67 456.41 621.67 453.71 621.57 450.37C621.41 443.7 620.83 434.5 619.72 424.37C618.61 414.24 617.12 405.15 615.78 398.62C615.46 396.98 615.14 395.51 614.78 394.22C614.42 392.93 614.25 391.81 614.01 390.91C613.77 390.01 613.64 389.37 613.51 388.82C613.43 388.578 613.386 388.325 613.38 388.07C613.491 388.297 613.578 388.535 613.64 388.78L614.26 390.84C614.54 391.73 614.82 392.84 615.15 394.13C615.48 395.42 615.84 396.88 616.15 398.52C617.992 407.033 619.377 415.639 620.3 424.3C621.41 434.44 621.91 443.67 621.95 450.35C621.95 453.69 621.95 456.4 621.84 458.27C621.78 459.14 621.74 459.85 621.7 460.42C621.729 460.67 621.719 460.923 621.67 461.17V461.17Z" fill="#263238"/>
<path d="M621.63 443.37C621.569 442.621 621.569 441.869 621.63 441.12C621.72 439.68 621.92 437.59 622.32 435.04C622.821 432.048 623.489 429.087 624.32 426.17C625.299 422.591 626.529 419.086 628 415.68C630.572 409.419 634.259 403.676 638.88 398.73C639.686 397.884 640.545 397.089 641.45 396.35C641.84 396.02 642.19 395.69 642.54 395.43L643.54 394.74C644.138 394.289 644.77 393.884 645.43 393.53C643.259 395.249 641.192 397.096 639.24 399.06C634.761 404.059 631.173 409.788 628.63 416C627.16 419.378 625.914 422.848 624.9 426.39C623.9 429.65 623.29 432.65 622.8 435.17C622.31 437.69 622.07 439.76 621.9 441.17C621.869 441.909 621.779 442.645 621.63 443.37V443.37Z" fill="#263238"/>
<path d="M270.4 41.62C270.168 41.6624 269.935 41.6924 269.7 41.71L267.7 41.88C266.596 41.9546 265.5 42.1117 264.42 42.35C263.77 42.49 263.06 42.55 262.34 42.77C261.62 42.99 260.84 43.21 260.03 43.44C256.085 44.7062 252.371 46.6005 249.03 49.05C244.639 52.3292 240.984 56.4919 238.3 61.27C234.185 68.6836 232.411 77.1689 233.21 85.61C233.27 86.53 233.47 87.44 233.6 88.37C233.724 89.3049 233.911 90.2303 234.16 91.14C235.042 94.9547 236.491 98.6155 238.46 102C242.65 109.324 249.123 115.074 256.89 118.37C260.982 120.079 265.357 121.011 269.79 121.12C274.356 121.301 278.913 120.58 283.2 119L284.51 118.5L284.68 118.44L284.84 118.51L303.84 127.89L303.29 128.38L297.23 110.29L297.16 110.06L297.32 109.89C301.857 105.224 305.195 99.5281 307.05 93.29C308.718 87.5899 309.141 81.5978 308.29 75.72C306.933 65.9231 302.03 56.9642 294.51 50.54C291.661 48.205 288.517 46.255 285.16 44.74C282.624 43.6822 279.987 42.8848 277.29 42.36L274.35 41.9L272.18 41.77L270.85 41.68C270.699 41.6786 270.548 41.6619 270.4 41.63C270.549 41.6123 270.7 41.6123 270.85 41.63H272.18L274.37 41.69L277.37 42.1C280.109 42.5811 282.791 43.3486 285.37 44.39C288.786 45.8782 291.986 47.8226 294.88 50.17C298.392 53.1184 301.378 56.6418 303.71 60.59C306.433 65.1978 308.23 70.2932 309 75.59C309.889 81.5637 309.48 87.6589 307.8 93.46C305.933 99.8237 302.545 105.638 297.93 110.4L298 110C300 115.8 302 121.85 304.08 128.08L304.39 128.99L303.53 128.57L284.53 119.2H284.86L283.52 119.71C279.135 121.319 274.476 122.043 269.81 121.84C265.28 121.73 260.81 120.778 256.63 119.03C248.711 115.652 242.118 109.772 237.86 102.29C235.863 98.8617 234.39 95.154 233.49 91.29C233.238 90.3648 233.054 89.4222 232.94 88.47C232.81 87.53 232.6 86.61 232.55 85.67C232.379 83.8352 232.332 81.9911 232.41 80.15C232.514 76.661 233.048 73.1981 234 69.84C234.915 66.7573 236.183 63.7909 237.78 61C240.538 56.1673 244.287 51.9723 248.78 48.69C252.168 46.2448 255.935 44.3731 259.93 43.15L262.28 42.51C262.97 42.3477 263.667 42.2209 264.37 42.13C265.46 41.9065 266.567 41.7728 267.68 41.73L269.73 41.63L270.4 41.62Z" fill="#263238"/>
<path d="M279.34 76.5H276.57L270.43 68.15L270.37 62.62C270.37 62.62 266.09 62.41 266.67 69.62C267.25 76.83 266.67 75.01 266.67 75.01C266.67 75.01 257.59 75.15 256.84 75.95C256.3 76.53 256.15 85.56 256.12 90.45C256.065 91.6494 256.419 92.8319 257.124 93.8038C257.829 94.7758 258.843 95.4796 260 95.8C260.327 95.8803 260.663 95.9205 261 95.92C263.27 95.92 274.82 93.92 274.82 93.92L279.61 93.86L279.34 76.5Z" fill="#5E78FF"/>
<path d="M287.25 74.89L285.76 93.84L281.02 93.9L280.81 75.35L287.25 74.89Z" fill="#5E78FF"/>
<path d="M251.607 367.404C251.607 368.716 251.855 369.96 252.353 371.136C252.851 372.267 253.529 373.263 254.389 374.122C255.248 374.982 256.243 375.66 257.374 376.158C258.55 376.655 259.794 376.904 261.106 376.904C262.418 376.904 263.639 376.655 264.77 376.158C265.946 375.66 266.964 374.982 267.824 374.122C268.683 373.263 269.362 372.267 269.859 371.136C270.357 369.96 270.606 368.716 270.606 367.404C270.606 366.093 270.357 364.871 269.859 363.74C269.362 362.564 268.683 361.546 267.824 360.687C266.964 359.827 265.946 359.149 264.77 358.651C263.639 358.154 262.418 357.905 261.106 357.905C259.794 357.905 258.55 358.154 257.374 358.651C256.243 359.149 255.248 359.827 254.389 360.687C253.529 361.546 252.851 362.564 252.353 363.74C251.855 364.871 251.607 366.093 251.607 367.404ZM261.106 383.011C258.935 383.011 256.899 382.604 254.999 381.79C253.145 380.975 251.493 379.867 250.046 378.465C248.644 377.017 247.535 375.366 246.721 373.511C245.907 371.611 245.5 369.576 245.5 367.404C245.5 365.233 245.907 363.22 246.721 361.365C247.535 359.465 248.644 357.814 250.046 356.412C251.493 354.964 253.145 353.834 254.999 353.019C256.899 352.205 258.935 351.798 261.106 351.798C263.278 351.798 265.291 352.205 267.145 353.019C269.045 353.834 270.696 354.964 272.099 356.412C273.546 357.814 274.677 359.465 275.491 361.365C276.306 363.22 276.713 365.233 276.713 367.404C276.713 369.576 276.306 371.611 275.491 373.511C274.677 375.366 273.546 377.017 272.099 378.465C270.696 379.867 269.045 380.975 267.145 381.79C265.291 382.604 263.278 383.011 261.106 383.011ZM237.357 367.404C237.357 364.147 237.968 361.071 239.189 358.176C240.456 355.281 242.152 352.77 244.278 350.644C246.45 348.473 248.983 346.777 251.878 345.555C254.773 344.289 257.849 343.655 261.106 343.655C264.363 343.655 267.439 344.289 270.334 345.555C273.23 346.777 275.74 348.473 277.866 350.644C280.038 352.77 281.734 355.281 282.955 358.176C284.222 361.071 284.855 364.147 284.855 367.404C284.855 369.35 284.629 371.227 284.177 373.036C283.724 374.846 283.091 376.542 282.277 378.125H286.484L280.377 390H268.367C265.969 390.769 263.549 391.154 261.106 391.154C257.849 391.154 254.773 390.543 251.878 389.321C248.983 388.055 246.45 386.358 244.278 384.232C242.152 382.061 240.456 379.528 239.189 376.633C237.968 373.738 237.357 370.661 237.357 367.404ZM268.434 383.147C269.927 382.468 271.284 381.586 272.506 380.5C273.727 379.415 274.768 378.193 275.627 376.836C276.532 375.479 277.233 374.009 277.731 372.426C278.228 370.797 278.477 369.123 278.477 367.404C278.477 365.007 278.025 362.768 277.12 360.687C276.215 358.561 274.971 356.706 273.388 355.123C271.805 353.54 269.95 352.296 267.824 351.391C265.743 350.486 263.504 350.034 261.106 350.034C258.709 350.034 256.447 350.486 254.321 351.391C252.24 352.296 250.408 353.54 248.825 355.123C247.241 356.706 245.997 358.561 245.093 360.687C244.188 362.768 243.735 365.007 243.735 367.404C243.735 369.802 244.188 372.064 245.093 374.19C245.997 376.271 247.241 378.103 248.825 379.686C250.408 381.269 252.262 382.513 254.389 383.418C256.56 384.323 258.89 384.775 261.378 384.775H278.68L279.495 383.147H268.434ZM307.127 391.154C304.278 391.154 301.699 390.792 299.392 390.068C297.085 389.344 295.117 388.258 293.489 386.811C291.86 385.363 290.594 383.531 289.689 381.315C288.829 379.098 288.4 376.497 288.4 373.511V344.741H302.853V372.901C302.853 374.484 303.169 375.705 303.803 376.565C304.481 377.379 305.589 377.786 307.127 377.786C308.665 377.786 309.751 377.379 310.384 376.565C311.063 375.705 311.402 374.484 311.402 372.901V344.741H325.923V373.511C325.923 376.497 325.471 379.098 324.566 381.315C323.707 383.531 322.44 385.363 320.766 386.811C319.138 388.258 317.17 389.344 314.863 390.068C312.556 390.792 309.977 391.154 307.127 391.154ZM307.127 383.011C300.342 383.011 296.949 379.686 296.949 373.036V350.169H295.185V373.036C295.185 376.836 296.203 379.754 298.238 381.79C300.319 383.78 303.282 384.775 307.127 384.775C310.973 384.775 313.936 383.78 316.016 381.79C318.097 379.754 319.138 376.836 319.138 373.036V350.169H317.306V373.036C317.306 379.686 313.913 383.011 307.127 383.011ZM330.482 344.741H345.817V390H330.482V344.741ZM339.032 384.572V350.169H337.268V384.572H339.032ZM362.57 356.616H350.085L354.699 344.741H383.673L367.931 378.125H382.791L378.245 390H346.828L362.57 356.616ZM374.716 384.572L375.395 382.943H358.906L374.377 350.169H358.228L357.617 351.798H371.595L356.124 384.572H374.716ZM412.7 344.741H423.556L440.723 390H426.474L424.981 385.929H411.275L409.782 390H395.532L412.7 344.741ZM421.181 375.954L418.128 368.015L415.074 375.954H421.181ZM405.643 384.572L406.932 381.179H429.324L430.613 384.572H432.513L419.417 350.169H416.839L403.743 384.572H405.643ZM418.128 351.798L428.713 379.55H407.543L418.128 351.798ZM476.956 361.976C476.956 365.097 476.413 367.766 475.328 369.983C474.242 372.154 472.749 373.918 470.849 375.276C468.995 376.633 466.801 377.628 464.267 378.261C461.779 378.894 459.088 379.211 456.193 379.211V390H441.74V344.741H456.193C459.088 344.741 461.779 345.058 464.267 345.691C466.801 346.324 468.995 347.32 470.849 348.677C472.749 350.034 474.242 351.821 475.328 354.037C476.413 356.208 476.956 358.855 476.956 361.976ZM470.374 361.976C470.374 359.94 470.012 358.176 469.289 356.683C468.61 355.191 467.637 353.969 466.371 353.019C465.104 352.069 463.589 351.368 461.825 350.916C460.106 350.418 458.228 350.169 456.193 350.169H448.525V384.572H450.289V373.783H456.193C458.228 373.783 460.106 373.557 461.825 373.104C463.589 372.607 465.104 371.883 466.371 370.933C467.637 369.983 468.61 368.762 469.289 367.269C470.012 365.776 470.374 364.012 470.374 361.976ZM468.474 361.976C468.474 363.921 468.135 365.55 467.457 366.862C466.778 368.173 465.873 369.214 464.742 369.983C463.611 370.752 462.3 371.317 460.807 371.679C459.359 371.996 457.821 372.154 456.193 372.154H450.289V351.798H456.193C457.821 351.798 459.359 351.979 460.807 352.341C462.3 352.657 463.611 353.2 464.742 353.969C465.873 354.738 466.778 355.779 467.457 357.091C468.135 358.402 468.474 360.031 468.474 361.976ZM456.193 366.997H456.803C458.703 366.997 460.06 366.568 460.875 365.708C461.734 364.803 462.164 363.559 462.164 361.976C462.164 360.393 461.734 359.171 460.875 358.312C460.06 357.407 458.703 356.955 456.803 356.955H456.193V366.997ZM515.588 361.976C515.588 365.097 515.045 367.766 513.96 369.983C512.874 372.154 511.381 373.918 509.481 375.276C507.627 376.633 505.433 377.628 502.899 378.261C500.411 378.894 497.72 379.211 494.825 379.211V390H480.372V344.741H494.825C497.72 344.741 500.411 345.058 502.899 345.691C505.433 346.324 507.627 347.32 509.481 348.677C511.381 350.034 512.874 351.821 513.96 354.037C515.045 356.208 515.588 358.855 515.588 361.976ZM509.006 361.976C509.006 359.94 508.644 358.176 507.921 356.683C507.242 355.191 506.269 353.969 505.003 353.019C503.736 352.069 502.221 351.368 500.457 350.916C498.738 350.418 496.86 350.169 494.825 350.169H487.157V384.572H488.921V373.783H494.825C496.86 373.783 498.738 373.557 500.457 373.104C502.221 372.607 503.736 371.883 505.003 370.933C506.269 369.983 507.242 368.762 507.921 367.269C508.644 365.776 509.006 364.012 509.006 361.976ZM507.106 361.976C507.106 363.921 506.767 365.55 506.089 366.862C505.41 368.173 504.505 369.214 503.374 369.983C502.243 370.752 500.932 371.317 499.439 371.679C497.991 371.996 496.453 372.154 494.825 372.154H488.921V351.798H494.825C496.453 351.798 497.991 351.979 499.439 352.341C500.932 352.657 502.243 353.2 503.374 353.969C504.505 354.738 505.41 355.779 506.089 357.091C506.767 358.402 507.106 360.031 507.106 361.976ZM494.825 366.997H495.435C497.335 366.997 498.692 366.568 499.507 365.708C500.366 364.803 500.796 363.559 500.796 361.976C500.796 360.393 500.366 359.171 499.507 358.312C498.692 357.407 497.335 356.955 495.435 356.955H494.825V366.997Z" fill="#34527C"/>
</svg>
