<svg width="633" height="49" viewBox="0 0 633 49" fill="none" xmlns="http://www.w3.org/2000/svg">
<path d="M0.64291 1.74103H15.978L21.2028 17.5511L26.4276 1.74103H36.3344L41.5592 17.5511L46.784 1.74103H62.1191L47.1911 47H35.9273L31.381 33.2934L26.8348 47H15.5709L0.64291 1.74103ZM22.3564 41.5716L31.381 13.1406L40.4057 41.5716H42.102L53.4337 7.1694H51.6017L41.2878 38.4503L31.381 7.1694L21.4742 38.4503L11.1604 7.1694H9.32829L20.66 41.5716H22.3564ZM63.1512 1.74103H77.6042V17.144H85.6789V1.74103H100.2V47H85.6789V30.2399H77.6042V47H63.1512V1.74103ZM71.7009 41.5716V24.4044H91.6501V41.5716H93.4143V7.1694H91.6501V22.7759H71.7009V7.1694H69.9367V41.5716H71.7009ZM118.399 1.74103H129.256L146.423 47H132.174L130.681 42.9287H116.974L115.481 47H101.232L118.399 1.74103ZM126.881 32.9541L123.827 25.0151L120.774 32.9541H126.881ZM111.342 41.5716L112.631 38.1789H135.023L136.313 41.5716H138.213L125.117 7.1694H122.538L109.442 41.5716H111.342ZM123.827 8.79791L134.413 36.5504H113.242L123.827 8.79791ZM153.41 13.6156H145.064V1.74103H176.685V13.6156H168.338V47H153.41V13.6156ZM161.757 41.5716V8.79791H171.46V7.1694H150.289V8.79791H159.992V41.5716H161.757ZM182.576 1.74103H195.468L188.208 20.0618H176.672L182.576 1.74103ZM182.304 17.3476H184.001L189.09 4.45522H187.393L182.304 17.3476ZM202.345 41.0967C202.978 41.2324 203.657 41.3455 204.38 41.4359C205.014 41.5264 205.67 41.6169 206.348 41.7073C207.072 41.7526 207.796 41.7752 208.519 41.7752C209.786 41.7752 211.007 41.6395 212.184 41.3681C213.405 41.0514 214.491 40.5538 215.441 39.8753C216.391 39.1967 217.137 38.3372 217.68 37.2968C218.268 36.2111 218.562 34.8993 218.562 33.3612C218.562 32.0494 218.223 30.8054 217.544 29.6292C216.911 28.4531 216.074 27.3222 215.033 26.2365C214.038 25.1508 212.953 24.1104 211.776 23.1152C210.646 22.12 209.56 21.1248 208.519 20.1296C207.524 19.0892 206.687 18.0714 206.009 17.0762C205.376 16.0357 205.059 14.9727 205.059 13.887C205.059 12.2585 205.579 11.0145 206.62 10.155C207.66 9.25027 209.334 8.79791 211.641 8.79791C212.003 8.79791 212.365 8.82052 212.726 8.86576C213.134 8.86576 213.518 8.88838 213.88 8.93361C214.242 8.97885 214.604 9.00147 214.966 9.00147V7.23725C214.649 7.23725 214.31 7.21463 213.948 7.1694C213.631 7.12416 213.269 7.10155 212.862 7.10155C212.5 7.05631 212.116 7.03369 211.709 7.03369C209.266 7.03369 207.253 7.59914 205.67 8.73005C204.086 9.81572 203.295 11.5347 203.295 13.887C203.295 15.1536 203.611 16.3524 204.245 17.4833C204.923 18.569 205.76 19.6546 206.755 20.7403C207.796 21.7807 208.881 22.7986 210.012 23.7938C211.188 24.789 212.274 25.8068 213.269 26.8472C214.31 27.8424 215.147 28.8828 215.78 29.9685C216.458 31.0542 216.798 32.1851 216.798 33.3612C216.798 35.5326 216.051 37.1837 214.559 38.3146C213.111 39.4455 211.098 40.011 208.519 40.011C206.981 40.011 205.579 39.8979 204.312 39.6717C203.634 39.5812 202.978 39.4681 202.345 39.3324V41.0967ZM196.645 32.9541C197.64 33.2708 198.681 33.5196 199.766 33.7005C200.671 33.9267 201.689 34.1076 202.82 34.2434C203.996 34.3791 205.172 34.4469 206.348 34.4469C208.429 34.4469 209.469 33.6779 209.469 32.1399C209.469 31.5518 209.153 30.9637 208.519 30.3756C207.886 29.7423 207.072 29.0638 206.077 28.34C205.127 27.571 204.086 26.7341 202.955 25.8294C201.87 24.9247 200.829 23.8842 199.834 22.7081C198.884 21.5319 198.092 20.2201 197.459 18.7725C196.826 17.2797 196.509 15.5834 196.509 13.6834C196.509 11.5573 196.894 9.68001 197.663 8.05151C198.432 6.423 199.495 5.06591 200.852 3.98024C202.209 2.89456 203.792 2.08031 205.602 1.53747C207.456 0.949401 209.424 0.655364 211.505 0.655364C212.591 0.655364 213.676 0.723219 214.762 0.858929C215.848 0.949401 216.82 1.03987 217.68 1.13034C218.675 1.26605 219.648 1.40176 220.598 1.53747V14.2263C220.236 14.181 219.829 14.1358 219.376 14.0906C219.014 14.0453 218.607 14.0001 218.155 13.9548C217.702 13.9096 217.227 13.887 216.73 13.887C216.458 13.887 216.119 13.9096 215.712 13.9548C215.305 13.9548 214.92 14.0001 214.559 14.0906C214.197 14.181 213.88 14.3394 213.609 14.5655C213.337 14.7917 213.201 15.1084 213.201 15.5155C213.201 15.8774 213.495 16.3298 214.084 16.8726C214.717 17.4154 215.463 18.0487 216.323 18.7725C217.227 19.4963 218.2 20.3332 219.24 21.2831C220.326 22.2331 221.299 23.3188 222.158 24.5402C223.063 25.7615 223.809 27.1412 224.397 28.6793C225.031 30.2173 225.347 31.9363 225.347 33.8362C225.347 35.8266 225.031 37.7039 224.397 39.4681C223.764 41.1871 222.769 42.7025 221.412 44.0144C220.1 45.281 218.404 46.2762 216.323 47C214.242 47.769 211.776 48.1535 208.927 48.1535C207.208 48.1535 205.602 48.0631 204.109 47.8821C202.661 47.7464 201.372 47.5655 200.241 47.3393C198.929 47.1131 197.731 46.8417 196.645 46.525V32.9541ZM252.312 27.5258L238.266 1.74103H254.348L259.573 11.3085L264.73 1.74103H280.811L266.765 27.5258V47H252.312V27.5258ZM260.455 41.5716V25.3544L270.361 7.1694H268.258L259.573 23.2509L250.819 7.1694H248.784L258.623 25.3544V41.5716H260.455ZM280.805 24.4044C280.805 21.1474 281.416 18.0714 282.637 15.1762C283.904 12.2811 285.6 9.77049 287.726 7.64438C289.898 5.47303 292.431 3.77667 295.326 2.55529C298.221 1.28867 301.297 0.655364 304.554 0.655364C307.811 0.655364 310.887 1.28867 313.782 2.55529C316.678 3.77667 319.188 5.47303 321.314 7.64438C323.486 9.77049 325.182 12.2811 326.403 15.1762C327.67 18.0714 328.303 21.1474 328.303 24.4044C328.303 27.6615 327.67 30.7375 326.403 33.6327C325.182 36.5278 323.486 39.061 321.314 41.2324C319.188 43.3585 316.678 45.0548 313.782 46.3215C310.887 47.5428 307.811 48.1535 304.554 48.1535C301.297 48.1535 298.221 47.5428 295.326 46.3215C292.431 45.0548 289.898 43.3585 287.726 41.2324C285.6 39.061 283.904 36.5278 282.637 33.6327C281.416 30.7375 280.805 27.6615 280.805 24.4044ZM287.184 24.4044C287.184 26.802 287.636 29.0638 288.541 31.1899C289.445 33.2708 290.689 35.1028 292.273 36.6861C293.856 38.2694 295.688 39.5134 297.769 40.4181C299.895 41.3228 302.157 41.7752 304.554 41.7752C306.952 41.7752 309.191 41.3228 311.272 40.4181C313.398 39.5134 315.253 38.2694 316.836 36.6861C318.419 35.1028 319.663 33.2708 320.568 31.1899C321.473 29.0638 321.925 26.802 321.925 24.4044C321.925 22.0069 321.473 19.7677 320.568 17.6868C319.663 15.5607 318.419 13.706 316.836 12.1228C315.253 10.5395 313.398 9.29551 311.272 8.39078C309.191 7.48605 306.952 7.03369 304.554 7.03369C302.157 7.03369 299.895 7.48605 297.769 8.39078C295.688 9.29551 293.856 10.5395 292.273 12.1228C290.689 13.706 289.445 15.5607 288.541 17.6868C287.636 19.7677 287.184 22.0069 287.184 24.4044ZM295.055 24.4044C295.055 25.7163 295.303 26.9603 295.801 28.1364C296.299 29.2674 296.977 30.2626 297.837 31.122C298.696 31.9815 299.691 32.6601 300.822 33.1577C301.998 33.6553 303.242 33.9041 304.554 33.9041C305.866 33.9041 307.087 33.6553 308.218 33.1577C309.395 32.6601 310.412 31.9815 311.272 31.122C312.131 30.2626 312.81 29.2674 313.307 28.1364C313.805 26.9603 314.054 25.7163 314.054 24.4044C314.054 23.0926 313.805 21.8712 313.307 20.7403C312.81 19.5642 312.131 18.5463 311.272 17.6868C310.412 16.8274 309.395 16.1488 308.218 15.6512C307.087 15.1536 305.866 14.9048 304.554 14.9048C303.242 14.9048 301.998 15.1536 300.822 15.6512C299.691 16.1488 298.696 16.8274 297.837 17.6868C296.977 18.5463 296.299 19.5642 295.801 20.7403C295.303 21.8712 295.055 23.0926 295.055 24.4044ZM304.554 40.011C302.383 40.011 300.347 39.6039 298.447 38.7896C296.593 37.9753 294.942 36.8671 293.494 35.4647C292.092 34.0172 290.983 32.366 290.169 30.5114C289.355 28.6114 288.948 26.5758 288.948 24.4044C288.948 22.2331 289.355 20.2201 290.169 18.3654C290.983 16.4655 292.092 14.8143 293.494 13.412C294.942 11.9645 296.593 10.8335 298.447 10.0193C300.347 9.20503 302.383 8.79791 304.554 8.79791C306.726 8.79791 308.739 9.20503 310.593 10.0193C312.493 10.8335 314.144 11.9645 315.547 13.412C316.994 14.8143 318.125 16.4655 318.939 18.3654C319.754 20.2201 320.161 22.2331 320.161 24.4044C320.161 26.5758 319.754 28.6114 318.939 30.5114C318.125 32.366 316.994 34.0172 315.547 35.4647C314.144 36.8671 312.493 37.9753 310.593 38.7896C308.739 39.6039 306.726 40.011 304.554 40.011ZM350.576 48.1535C347.726 48.1535 345.147 47.7916 342.84 47.0679C340.533 46.3441 338.565 45.2584 336.937 43.8108C335.308 42.3633 334.042 40.5312 333.137 38.3146C332.277 36.098 331.848 33.497 331.848 30.5114V1.74103H346.301V29.9007C346.301 31.4839 346.617 32.7053 347.251 33.5648C347.929 34.3791 349.037 34.7862 350.576 34.7862C352.114 34.7862 353.199 34.3791 353.833 33.5648C354.511 32.7053 354.85 31.4839 354.85 29.9007V1.74103H369.371V30.5114C369.371 33.497 368.919 36.098 368.014 38.3146C367.155 40.5312 365.888 42.3633 364.214 43.8108C362.586 45.2584 360.618 46.3441 358.311 47.0679C356.004 47.7916 353.425 48.1535 350.576 48.1535ZM350.576 40.011C343.79 40.011 340.397 36.6861 340.397 30.0364V7.1694H338.633V30.0364C338.633 33.8362 339.651 36.754 341.687 38.7896C343.767 40.78 346.73 41.7752 350.576 41.7752C354.421 41.7752 357.384 40.78 359.464 38.7896C361.545 36.754 362.586 33.8362 362.586 30.0364V7.1694H360.754V30.0364C360.754 36.6861 357.361 40.011 350.576 40.011ZM388.044 31.2578C389.808 31.2578 391.527 31.0768 393.201 30.7149L399.647 41.5716H401.751L394.965 30.1721C397.408 29.3126 399.353 28.0007 400.801 26.2365C402.248 24.4271 402.972 22.0974 402.972 19.2475C402.972 17.2571 402.587 15.5155 401.818 14.0227C401.049 12.5299 399.986 11.2859 398.629 10.2907C397.317 9.25027 395.757 8.48125 393.947 7.98365C392.138 7.44082 390.17 7.1694 388.044 7.1694H380.716V41.5716H382.48V31.2578H388.044ZM382.48 29.6292V8.79791H388.044C392.16 8.79791 395.372 9.70263 397.679 11.5121C400.032 13.3215 401.208 15.9 401.208 19.2475C401.208 22.595 400.032 25.1735 397.679 26.9829C395.372 28.7471 392.16 29.6292 388.044 29.6292H382.48ZM373.93 1.74103H389.537C392.432 1.74103 395.101 2.12554 397.544 2.89456C400.032 3.66358 402.18 4.79449 403.99 6.28729C405.799 7.78009 407.202 9.63478 408.197 11.8514C409.237 14.0227 409.757 16.5333 409.757 19.3832C409.757 21.645 409.441 23.5676 408.807 25.1508C408.174 26.7341 407.473 28.046 406.704 29.0864C405.799 30.2626 404.781 31.2578 403.65 32.072L412.132 47H395.169L388.383 35.5326V47H373.93V1.74103ZM388.383 23.9973H389.13C390.849 23.9973 392.296 23.6128 393.472 22.8438C394.694 22.0748 395.304 20.7855 395.304 18.9761C395.304 17.1666 394.694 15.8774 393.472 15.1084C392.296 14.3394 390.849 13.9548 389.13 13.9548H388.383V23.9973ZM427.074 1.74103H438.949L451.434 19.1796V1.74103H465.615V47H453.673L441.256 29.6292V47H427.074V1.74103ZM435.149 41.5716V10.2228L457.541 41.5716H459.305V7.1694H457.541V38.5182L435.149 7.1694H433.385V41.5716H435.149ZM483.78 1.74103H494.636L511.804 47H497.554L496.061 42.9287H482.355L480.862 47H466.613L483.78 1.74103ZM492.262 32.9541L489.208 25.0151L486.155 32.9541H492.262ZM476.723 41.5716L478.012 38.1789H500.404L501.693 41.5716H503.593L490.497 7.1694H487.919L474.823 41.5716H476.723ZM489.208 8.79791L499.793 36.5504H478.623L489.208 8.79791ZM512.82 1.74103H524.762L536.569 19.1118L548.308 1.74103H560.25V47H545.797V30.7149L536.569 44.2858L527.273 30.7149V47H512.82V1.74103ZM521.37 41.5716V10.4264L536.569 32.547L551.701 10.4264V41.5716H553.465V7.1694H551.701L536.569 29.4935L521.37 7.1694H519.605V41.5716H521.37ZM564.97 1.74103H591.637V13.6156H579.423V18.6368H591.433V29.9007H579.423V35.1255H592.112V47H564.97V1.74103ZM587.09 41.5716V39.9431H573.519V25.083H586.412V23.4545H573.519V8.79791H587.09V7.1694H571.755V41.5716H587.09ZM610.239 33.6327C610.239 31.5066 610.556 29.6745 611.189 28.1364C611.823 26.5984 612.524 25.2413 613.293 24.0652C614.062 22.8438 614.763 21.7581 615.396 20.8082C616.03 19.8582 616.346 18.9082 616.346 17.9583C616.346 17.0988 616.165 16.4202 615.803 15.9226C615.442 15.3798 614.967 14.9727 614.379 14.7013C613.79 14.3846 613.089 14.181 612.275 14.0906C611.506 14.0001 610.692 13.9548 609.832 13.9548H608.407V1.33391C609.222 1.1982 609.923 1.08511 610.511 0.994637C611.144 0.904165 611.71 0.83631 612.207 0.791072C612.705 0.745836 613.18 0.723218 613.632 0.723218C614.13 0.677982 614.695 0.655364 615.329 0.655364C617.907 0.655364 620.237 0.994637 622.318 1.67318C624.398 2.30649 626.163 3.23384 627.61 4.45522C629.103 5.6766 630.256 7.14678 631.071 8.86576C631.885 10.5847 632.292 12.4847 632.292 14.5655C632.292 16.5559 631.885 18.3654 631.071 19.9939C630.302 21.5772 629.442 23.1152 628.492 24.608C627.542 26.1008 626.66 27.571 625.846 29.0186C625.077 30.4661 624.692 32.0042 624.692 33.6327H610.239ZM619.264 29.3578C619.264 28.5436 619.558 27.5936 620.146 26.5079C620.734 25.4223 621.368 24.2687 622.046 23.0474C622.77 21.7807 623.426 20.4915 624.014 19.1796C624.602 17.8678 624.896 16.5786 624.896 15.3119C624.896 12.8692 624.127 10.9014 622.589 9.4086C621.051 7.9158 618.653 7.1694 615.396 7.1694H613.632V8.79791H615.396C616.437 8.79791 617.432 8.93362 618.382 9.20503C619.332 9.43121 620.169 9.81572 620.893 10.3586C621.616 10.8562 622.182 11.5347 622.589 12.3942C623.041 13.2084 623.267 14.181 623.267 15.3119C623.267 16.6238 622.973 17.9356 622.385 19.2475C621.797 20.5141 621.141 21.7581 620.418 22.9795C619.739 24.2009 619.106 25.3544 618.518 26.4401C617.93 27.5258 617.636 28.4983 617.636 29.3578H619.264ZM610.239 35.6683H624.76V47H610.239V35.6683ZM620.689 42.1145V40.5538H614.311V42.1145H620.689Z" fill="#34527C"/>
</svg>
